<svg>
    <symbol id="icon-menu" width="24" height="24" viewBox="0 0 24 24" fill="none" xmlns="http://www.w3.org/2000/svg">
       <path fill-rule="evenodd" clip-rule="evenodd" d="M3 7C3 6.448 3.448 6 4 6C4.552 6 5 6.448 5 7C5 7.552 4.552 8 4 8C3.448 8 3 7.552 3 7ZM3 12C3 11.448 3.448 11 4 11C4.552 11 5 11.448 5 12C5 12.552 4.552 13 4 13C3.448 13 3 12.552 3 12ZM4 16C3.448 16 3 16.448 3 17C3 17.552 3.448 18 4 18C4.552 18 5 17.552 5 17C5 16.448 4.552 16 4 16ZM7.9355 11H20.0645C20.5795 11 21.0005 11.421 21.0005 11.936V12.064C21.0005 12.579 20.5795 13 20.0645 13H7.9355C7.4205 13 7.0005 12.579 7.0005 12.064V11.936C7.0005 11.421 7.4205 11 7.9355 11ZM20.0645 16H7.9355C7.4205 16 7.0005 16.421 7.0005 16.936V17.064C7.0005 17.579 7.4205 18 7.9355 18H20.0645C20.5795 18 21.0005 17.579 21.0005 17.064V16.936C21.0005 16.421 20.5795 16 20.0645 16ZM7.9355 6H20.0645C20.5795 6 21.0005 6.421 21.0005 6.936V7.064C21.0005 7.579 20.5795 8 20.0645 8H7.9355C7.4205 8 7.0005 7.579 7.0005 7.064V6.936C7.0005 6.421 7.4205 6 7.9355 6Z" fill="white"/>
    </symbol>
    <symbol id="icon-close" width="24" height="24" viewBox="0 0 24 24" fill="none" xmlns="http://www.w3.org/2000/svg">
       <path fill-rule="evenodd" clip-rule="evenodd" d="M13.4141 12L17.7071 7.70701C18.0981 7.31601 18.0981 6.68401 17.7071 6.29301C17.3161 5.90201 16.6841 5.90201 16.2931 6.29301L12.0001 10.586L7.7071 6.29301C7.3161 5.90201 6.6841 5.90201 6.2931 6.29301C5.9021 6.68401 5.9021 7.31601 6.2931 7.70701L10.5861 12L6.2931 16.293C5.9021 16.684 5.9021 17.316 6.2931 17.707C6.4881 17.902 6.7441 18 7.0001 18C7.2561 18 7.5121 17.902 7.7071 17.707L12.0001 13.414L16.2931 17.707C16.4881 17.902 16.7441 18 17.0001 18C17.2561 18 17.5121 17.902 17.7071 17.707C18.0981 17.316 18.0981 16.684 17.7071 16.293L13.4141 12Z" fill="black"/>
    </symbol>
    <symbol id="icon-search" width="24" height="24" viewBox="0 0 24 24" fill="none" xmlns="http://www.w3.org/2000/svg">
       <path fill-rule="evenodd" clip-rule="evenodd" d="M5 11C5 7.691 7.691 5 11 5C14.309 5 17 7.691 17 11C17 14.309 14.309 17 11 17C7.691 17 5 14.309 5 11ZM20.707 19.293L17.312 15.897C18.365 14.543 19 12.846 19 11C19 6.589 15.411 3 11 3C6.589 3 3 6.589 3 11C3 15.411 6.589 19 11 19C12.846 19 14.543 18.365 15.897 17.312L19.293 20.707C19.488 20.902 19.744 21 20 21C20.256 21 20.512 20.902 20.707 20.707C21.098 20.316 21.098 19.684 20.707 19.293Z" fill="#071435"/>
    </symbol>
    <symbol id="icon-bell"  width="32" height="32" viewBox="0 0 32 32" fill="none" xmlns="http://www.w3.org/2000/svg">
       <path fill-rule="evenodd" clip-rule="evenodd" d="M7.3528 21.3334L8.92614 19.7574C9.43014 19.2534 9.70747 18.584 9.70747 17.872V11.636C9.70747 9.82669 10.4941 8.09736 11.8675 6.89469C13.2515 5.68136 15.0141 5.14802 16.8501 5.38936C19.9528 5.80136 22.2928 8.60669 22.2928 11.916V17.872C22.2928 18.584 22.5701 19.2534 23.0728 19.756L24.6475 21.3334H7.3528ZM18.6661 24.4547C18.6661 25.6534 17.4448 26.6667 15.9995 26.6667C14.5541 26.6667 13.3328 25.6534 13.3328 24.4547V24H18.6661V24.4547ZM27.3608 20.2774L24.9595 17.872V11.916C24.9595 7.27469 21.6235 3.33202 17.1995 2.74669C14.6368 2.40536 12.0501 3.18802 10.1101 4.88935C8.15814 6.59869 7.0408 9.05735 7.0408 11.636L7.03947 17.872L4.63814 20.2774C4.0128 20.904 3.82747 21.836 4.16614 22.6534C4.50614 23.472 5.2968 24 6.18214 24H10.6661V24.4547C10.6661 27.1454 13.0581 29.3334 15.9995 29.3334C18.9408 29.3334 21.3328 27.1454 21.3328 24.4547V24H25.8168C26.7021 24 27.4915 23.472 27.8301 22.6547C28.1701 21.836 27.9861 20.9027 27.3608 20.2774Z" fill="#1551E5"/>
    </symbol>
    <symbol id="icon-line" width="1" height="48" viewBox="0 0 1 48" fill="none" xmlns="http://www.w3.org/2000/svg">
       <line x1="0.5" y1="48" x2="0.499998" y2="2.18557e-08" stroke="#E2E4F0"/>
    </symbol>
    <symbol id="icon-like" width="32" height="32" viewBox="0 0 32 32" fill="none" xmlns="http://www.w3.org/2000/svg">
       <path fill-rule="evenodd" clip-rule="evenodd" d="M9.62627 8.00004C8.47427 8.00004 7.39427 8.44537 6.58627 9.25471C4.90894 10.9347 4.90894 13.6694 6.5876 15.352L15.9996 24.78L25.4129 15.352C27.0916 13.6694 27.0916 10.9347 25.4129 9.25471C23.7969 7.63471 20.9489 7.63737 19.3329 9.25471L16.9436 11.648C16.4423 12.1507 15.5569 12.1507 15.0556 11.648L12.6663 9.25337C11.8583 8.44537 10.7796 8.00004 9.62627 8.00004ZM15.9996 28C15.6463 28 15.3063 27.86 15.0569 27.608L4.6996 17.2347C1.98494 14.5147 1.98494 10.0894 4.6996 7.36937C6.0116 6.05737 7.76094 5.33337 9.62627 5.33337C11.4916 5.33337 13.2423 6.05737 14.5529 7.36937L15.9996 8.81871L17.4463 7.37071C18.7583 6.05737 20.5076 5.33337 22.3743 5.33337C24.2383 5.33337 25.9889 6.05737 27.2996 7.36937C30.0156 10.0894 30.0156 14.5147 27.3009 17.2347L16.9436 27.6094C16.6929 27.86 16.3543 28 15.9996 28Z" fill="#77829E"
/>
    </symbol>
    <symbol id="icon-cart" width="24" height="24" viewBox="0 0 24 24" fill="none" xmlns="http://www.w3.org/2000/svg">
        <path fill-rule="evenodd" clip-rule="evenodd" d="M16.3818 14H8.76379L7.12679 8H19.3818L16.3818 14ZM21.0828 6.948C20.7158 6.354 20.0798 6 19.3818 6H6.58179L5.96479 3.737C5.84579 3.302 5.45079 3 4.99979 3H2.99979C2.44679 3 1.99979 3.448 1.99979 4C1.99979 4.552 2.44679 5 2.99979 5H4.23579L7.03479 15.263C7.15379 15.698 7.54879 16 7.99979 16H16.9998C17.3788 16 17.7248 15.786 17.8948 15.447L21.1708 8.894C21.4838 8.269 21.4498 7.542 21.0828 6.948ZM7.49999 18C6.67199 18 5.99999 18.671 5.99999 19.5C5.99999 20.329 6.67199 21 7.49999 21C8.32799 21 8.99999 20.329 8.99999 19.5C8.99999 18.671 8.32799 18 7.49999 18ZM16 19.5C16 18.671 16.672 18 17.5 18C18.328 18 19 18.671 19 19.5C19 20.329 18.328 21 17.5 21C16.672 21 16 20.329 16 19.5Z" fill="#1551E5"/> 
    </symbol>
    <symbol id="icon-arrow" height="24" viewBox="0 0 24 24" fill="none" xmlns="http://www.w3.org/2000/svg">
        <path fill-rule="evenodd" clip-rule="evenodd" d="M12 15.5C11.744 15.5 11.488 15.402 11.293 15.207L7.29301 11.207C6.90201 10.816 6.90201 10.184 7.29301 9.79301C7.68401 9.40201 8.31601 9.40201 8.70701 9.79301L12.012 13.098L15.305 9.91801C15.704 9.53501 16.335 9.54601 16.719 9.94301C17.103 10.34 17.092 10.974 16.695 11.357L12.695 15.219C12.5 15.407 12.25 15.5 12 15.5Z" fill="#1551E5"/>
    </symbol>
    <symbol id="icon-header-line" width="1600" height="1" viewBox="0 0 1600 1" fill="none" xmlns="http://www.w3.org/2000/svg">
        <line y1="0.5" x2="1600" y2="0.5" stroke="#E2E4F0"/>
    </symbol>
    <symbol id="icon-message-circle" width="16" height="16" viewBox="0 0 16 16" fill="none" xmlns="http://www.w3.org/2000/svg">
        <path fill-rule="evenodd" clip-rule="evenodd" d="M4.66681 7.33287C4.66681 6.96487 4.96548 6.6662 5.33348 6.6662C5.70148 6.6662 6.00014 6.96487 6.00014 7.33287C6.00014 7.70087 5.70148 7.99953 5.33348 7.99953C4.96548 7.99953 4.66681 7.70087 4.66681 7.33287ZM8.00014 6.6662C7.63214 6.6662 7.33348 6.96487 7.33348 7.33287C7.33348 7.70087 7.63214 7.99953 8.00014 7.99953C8.36814 7.99953 8.66681 7.70087 8.66681 7.33287C8.66681 6.96487 8.36814 6.6662 8.00014 6.6662ZM10.6668 6.6662C10.2988 6.6662 10.0001 6.96487 10.0001 7.33287C10.0001 7.70087 10.2988 7.99953 10.6668 7.99953C11.0348 7.99953 11.3335 7.70087 11.3335 7.33287C11.3335 6.96487 11.0348 6.6662 10.6668 6.6662ZM13.2657 8.19613C12.9277 10.3655 11.1791 12.1648 9.01308 12.5708C7.96708 12.7681 6.90174 12.6555 5.93508 12.2461C5.66108 12.1301 5.37774 12.0715 5.09974 12.0715C4.97308 12.0715 4.84774 12.0835 4.72441 12.1081L2.84974 12.4828L3.22508 10.6048C3.30374 10.2148 3.25574 9.79747 3.08708 9.39814C2.67774 8.43147 2.56574 7.3668 2.76241 6.32013C3.16841 4.15413 4.96708 2.40547 7.13708 2.06747C8.86374 1.7988 10.5524 2.3428 11.7711 3.56147C12.9904 4.7808 13.5351 6.47013 13.2657 8.19613ZM12.7144 2.6188C11.1911 1.09613 9.08441 0.416801 6.93174 0.749468C4.21374 1.17347 1.96041 3.3628 1.45174 6.07413C1.20641 7.37947 1.34774 8.7088 1.85908 9.91747C1.92374 10.0715 1.94374 10.2148 1.91841 10.3435L1.34641 13.2021C1.30241 13.4208 1.37108 13.6468 1.52908 13.8041C1.65508 13.9308 1.82508 13.9995 2.00041 13.9995C2.04374 13.9995 2.08708 13.9955 2.13108 13.9868L4.98641 13.4155C5.15041 13.3841 5.30908 13.4301 5.41508 13.4741C6.62508 13.9855 7.95441 14.1261 9.25841 13.8815C11.9704 13.3728 14.1597 11.1195 14.5837 8.40147C14.9184 6.25013 14.2377 4.14213 12.7144 2.6188Z" fill="#1551E5"/>
    </symbol>
    <symbol id="icon-promo" width="16" height="16" viewBox="0 0 16 16" fill="none" xmlns="http://www.w3.org/2000/svg">
        <path fill-rule="evenodd" clip-rule="evenodd" d="M13.1598 2.84044C12.9284 2.60844 12.5531 2.60844 12.3218 2.84044L2.84044 12.3218C2.72444 12.4378 2.66644 12.5891 2.66644 12.7411C2.66644 12.8924 2.72444 13.0444 2.84044 13.1598C3.07178 13.3911 3.44644 13.3911 3.67844 13.1598L13.1598 3.67844C13.3911 3.44644 13.3911 3.07178 13.1598 2.84044ZM10.6666 12.6666C10.1153 12.6666 9.66664 12.218 9.66664 11.6666C9.66664 11.1153 10.1153 10.6666 10.6666 10.6666C11.218 10.6666 11.6666 11.1153 11.6666 11.6666C11.6666 12.218 11.218 12.6666 10.6666 12.6666ZM10.6666 9.33331C9.37998 9.33331 8.33331 10.38 8.33331 11.6666C8.33331 12.9533 9.37998 14 10.6666 14C11.9533 14 13 12.9533 13 11.6666C13 10.38 11.9533 9.33331 10.6666 9.33331ZM5.33331 3.99998C5.88464 3.99998 6.33331 4.44864 6.33331 4.99998C6.33331 5.55131 5.88464 5.99998 5.33331 5.99998C4.78198 5.99998 4.33331 5.55131 4.33331 4.99998C4.33331 4.44864 4.78198 3.99998 5.33331 3.99998ZM5.33331 7.33331C6.61998 7.33331 7.66664 6.28664 7.66664 4.99998C7.66664 3.71331 6.61998 2.66664 5.33331 2.66664C4.04664 2.66664 2.99998 3.71331 2.99998 4.99998C2.99998 6.28664 4.04664 7.33331 5.33331 7.33331Z" fill="#1551E5"/>
    </symbol>




</svg>
