<svg>
    <symbol id="icon-menu" width="24" height="24" viewBox="0 0 24 24" fill="none" xmlns="http://www.w3.org/2000/svg">
       <path fill-rule="evenodd" clip-rule="evenodd" d="M3 7C3 6.448 3.448 6 4 6C4.552 6 5 6.448 5 7C5 7.552 4.552 8 4 8C3.448 8 3 7.552 3 7ZM3 12C3 11.448 3.448 11 4 11C4.552 11 5 11.448 5 12C5 12.552 4.552 13 4 13C3.448 13 3 12.552 3 12ZM4 16C3.448 16 3 16.448 3 17C3 17.552 3.448 18 4 18C4.552 18 5 17.552 5 17C5 16.448 4.552 16 4 16ZM7.9355 11H20.0645C20.5795 11 21.0005 11.421 21.0005 11.936V12.064C21.0005 12.579 20.5795 13 20.0645 13H7.9355C7.4205 13 7.0005 12.579 7.0005 12.064V11.936C7.0005 11.421 7.4205 11 7.9355 11ZM20.0645 16H7.9355C7.4205 16 7.0005 16.421 7.0005 16.936V17.064C7.0005 17.579 7.4205 18 7.9355 18H20.0645C20.5795 18 21.0005 17.579 21.0005 17.064V16.936C21.0005 16.421 20.5795 16 20.0645 16ZM7.9355 6H20.0645C20.5795 6 21.0005 6.421 21.0005 6.936V7.064C21.0005 7.579 20.5795 8 20.0645 8H7.9355C7.4205 8 7.0005 7.579 7.0005 7.064V6.936C7.0005 6.421 7.4205 6 7.9355 6Z" fill="white"/>
    </symbol>
    <symbol id="icon-close" width="24" height="24" viewBox="0 0 24 24" fill="none" xmlns="http://www.w3.org/2000/svg">
       <path fill-rule="evenodd" clip-rule="evenodd" d="M13.4141 12L17.7071 7.70701C18.0981 7.31601 18.0981 6.68401 17.7071 6.29301C17.3161 5.90201 16.6841 5.90201 16.2931 6.29301L12.0001 10.586L7.7071 6.29301C7.3161 5.90201 6.6841 5.90201 6.2931 6.29301C5.9021 6.68401 5.9021 7.31601 6.2931 7.70701L10.5861 12L6.2931 16.293C5.9021 16.684 5.9021 17.316 6.2931 17.707C6.4881 17.902 6.7441 18 7.0001 18C7.2561 18 7.5121 17.902 7.7071 17.707L12.0001 13.414L16.2931 17.707C16.4881 17.902 16.7441 18 17.0001 18C17.2561 18 17.5121 17.902 17.7071 17.707C18.0981 17.316 18.0981 16.684 17.7071 16.293L13.4141 12Z" fill="black"/>
    </symbol>
    <symbol id="icon-search" width="24" height="24" viewBox="0 0 24 24" fill="none" xmlns="http://www.w3.org/2000/svg">
       <path fill-rule="evenodd" clip-rule="evenodd" d="M5 11C5 7.691 7.691 5 11 5C14.309 5 17 7.691 17 11C17 14.309 14.309 17 11 17C7.691 17 5 14.309 5 11ZM20.707 19.293L17.312 15.897C18.365 14.543 19 12.846 19 11C19 6.589 15.411 3 11 3C6.589 3 3 6.589 3 11C3 15.411 6.589 19 11 19C12.846 19 14.543 18.365 15.897 17.312L19.293 20.707C19.488 20.902 19.744 21 20 21C20.256 21 20.512 20.902 20.707 20.707C21.098 20.316 21.098 19.684 20.707 19.293Z" fill="#071435"/>
    </symbol>
    <symbol id="icon-bell"  width="32" height="32" viewBox="0 0 32 32" fill="none" xmlns="http://www.w3.org/2000/svg">
       <path fill-rule="evenodd" clip-rule="evenodd" d="M7.3528 21.3334L8.92614 19.7574C9.43014 19.2534 9.70747 18.584 9.70747 17.872V11.636C9.70747 9.82669 10.4941 8.09736 11.8675 6.89469C13.2515 5.68136 15.0141 5.14802 16.8501 5.38936C19.9528 5.80136 22.2928 8.60669 22.2928 11.916V17.872C22.2928 18.584 22.5701 19.2534 23.0728 19.756L24.6475 21.3334H7.3528ZM18.6661 24.4547C18.6661 25.6534 17.4448 26.6667 15.9995 26.6667C14.5541 26.6667 13.3328 25.6534 13.3328 24.4547V24H18.6661V24.4547ZM27.3608 20.2774L24.9595 17.872V11.916C24.9595 7.27469 21.6235 3.33202 17.1995 2.74669C14.6368 2.40536 12.0501 3.18802 10.1101 4.88935C8.15814 6.59869 7.0408 9.05735 7.0408 11.636L7.03947 17.872L4.63814 20.2774C4.0128 20.904 3.82747 21.836 4.16614 22.6534C4.50614 23.472 5.2968 24 6.18214 24H10.6661V24.4547C10.6661 27.1454 13.0581 29.3334 15.9995 29.3334C18.9408 29.3334 21.3328 27.1454 21.3328 24.4547V24H25.8168C26.7021 24 27.4915 23.472 27.8301 22.6547C28.1701 21.836 27.9861 20.9027 27.3608 20.2774Z" fill="#1551E5"/>
    </symbol>
    <symbol id="icon-line" width="1" height="48" viewBox="0 0 1 48" fill="none" xmlns="http://www.w3.org/2000/svg">
       <line x1="0.5" y1="48" x2="0.499998" y2="2.18557e-08" stroke="#E2E4F0"/>
    </symbol>
    <symbol id="icon-like" width="32" height="32" viewBox="0 0 32 32" fill="none" xmlns="http://www.w3.org/2000/svg">
       <path fill-rule="evenodd" clip-rule="evenodd" d="M9.62627 8.00004C8.47427 8.00004 7.39427 8.44537 6.58627 9.25471C4.90894 10.9347 4.90894 13.6694 6.5876 15.352L15.9996 24.78L25.4129 15.352C27.0916 13.6694 27.0916 10.9347 25.4129 9.25471C23.7969 7.63471 20.9489 7.63737 19.3329 9.25471L16.9436 11.648C16.4423 12.1507 15.5569 12.1507 15.0556 11.648L12.6663 9.25337C11.8583 8.44537 10.7796 8.00004 9.62627 8.00004ZM15.9996 28C15.6463 28 15.3063 27.86 15.0569 27.608L4.6996 17.2347C1.98494 14.5147 1.98494 10.0894 4.6996 7.36937C6.0116 6.05737 7.76094 5.33337 9.62627 5.33337C11.4916 5.33337 13.2423 6.05737 14.5529 7.36937L15.9996 8.81871L17.4463 7.37071C18.7583 6.05737 20.5076 5.33337 22.3743 5.33337C24.2383 5.33337 25.9889 6.05737 27.2996 7.36937C30.0156 10.0894 30.0156 14.5147 27.3009 17.2347L16.9436 27.6094C16.6929 27.86 16.3543 28 15.9996 28Z" fill="#77829E"
/>
    </symbol>
    <symbol id="icon-cart" width="24" height="24" viewBox="0 0 24 24" fill="none" xmlns="http://www.w3.org/2000/svg">
        <path fill-rule="evenodd" clip-rule="evenodd" d="M16.3818 14H8.76379L7.12679 8H19.3818L16.3818 14ZM21.0828 6.948C20.7158 6.354 20.0798 6 19.3818 6H6.58179L5.96479 3.737C5.84579 3.302 5.45079 3 4.99979 3H2.99979C2.44679 3 1.99979 3.448 1.99979 4C1.99979 4.552 2.44679 5 2.99979 5H4.23579L7.03479 15.263C7.15379 15.698 7.54879 16 7.99979 16H16.9998C17.3788 16 17.7248 15.786 17.8948 15.447L21.1708 8.894C21.4838 8.269 21.4498 7.542 21.0828 6.948ZM7.49999 18C6.67199 18 5.99999 18.671 5.99999 19.5C5.99999 20.329 6.67199 21 7.49999 21C8.32799 21 8.99999 20.329 8.99999 19.5C8.99999 18.671 8.32799 18 7.49999 18ZM16 19.5C16 18.671 16.672 18 17.5 18C18.328 18 19 18.671 19 19.5C19 20.329 18.328 21 17.5 21C16.672 21 16 20.329 16 19.5Z" fill="#1551E5"/> 
    </symbol>
    <symbol id="icon-arrow" height="24" viewBox="0 0 24 24" fill="none" xmlns="http://www.w3.org/2000/svg">
        <path fill-rule="evenodd" clip-rule="evenodd" d="M12 15.5C11.744 15.5 11.488 15.402 11.293 15.207L7.29301 11.207C6.90201 10.816 6.90201 10.184 7.29301 9.79301C7.68401 9.40201 8.31601 9.40201 8.70701 9.79301L12.012 13.098L15.305 9.91801C15.704 9.53501 16.335 9.54601 16.719 9.94301C17.103 10.34 17.092 10.974 16.695 11.357L12.695 15.219C12.5 15.407 12.25 15.5 12 15.5Z" fill="#1551E5"/>
    </symbol>
    <symbol id="icon-header-line" width="1600" height="1" viewBox="0 0 1600 1" fill="none" xmlns="http://www.w3.org/2000/svg">
        <line y1="0.5" x2="1600" y2="0.5" stroke="#E2E4F0"/>
    </symbol>
    <symbol id="icon-message-circle" width="16" height="16" viewBox="0 0 16 16" fill="none" xmlns="http://www.w3.org/2000/svg">
        <path fill-rule="evenodd" clip-rule="evenodd" d="M4.66681 7.33287C4.66681 6.96487 4.96548 6.6662 5.33348 6.6662C5.70148 6.6662 6.00014 6.96487 6.00014 7.33287C6.00014 7.70087 5.70148 7.99953 5.33348 7.99953C4.96548 7.99953 4.66681 7.70087 4.66681 7.33287ZM8.00014 6.6662C7.63214 6.6662 7.33348 6.96487 7.33348 7.33287C7.33348 7.70087 7.63214 7.99953 8.00014 7.99953C8.36814 7.99953 8.66681 7.70087 8.66681 7.33287C8.66681 6.96487 8.36814 6.6662 8.00014 6.6662ZM10.6668 6.6662C10.2988 6.6662 10.0001 6.96487 10.0001 7.33287C10.0001 7.70087 10.2988 7.99953 10.6668 7.99953C11.0348 7.99953 11.3335 7.70087 11.3335 7.33287C11.3335 6.96487 11.0348 6.6662 10.6668 6.6662ZM13.2657 8.19613C12.9277 10.3655 11.1791 12.1648 9.01308 12.5708C7.96708 12.7681 6.90174 12.6555 5.93508 12.2461C5.66108 12.1301 5.37774 12.0715 5.09974 12.0715C4.97308 12.0715 4.84774 12.0835 4.72441 12.1081L2.84974 12.4828L3.22508 10.6048C3.30374 10.2148 3.25574 9.79747 3.08708 9.39814C2.67774 8.43147 2.56574 7.3668 2.76241 6.32013C3.16841 4.15413 4.96708 2.40547 7.13708 2.06747C8.86374 1.7988 10.5524 2.3428 11.7711 3.56147C12.9904 4.7808 13.5351 6.47013 13.2657 8.19613ZM12.7144 2.6188C11.1911 1.09613 9.08441 0.416801 6.93174 0.749468C4.21374 1.17347 1.96041 3.3628 1.45174 6.07413C1.20641 7.37947 1.34774 8.7088 1.85908 9.91747C1.92374 10.0715 1.94374 10.2148 1.91841 10.3435L1.34641 13.2021C1.30241 13.4208 1.37108 13.6468 1.52908 13.8041C1.65508 13.9308 1.82508 13.9995 2.00041 13.9995C2.04374 13.9995 2.08708 13.9955 2.13108 13.9868L4.98641 13.4155C5.15041 13.3841 5.30908 13.4301 5.41508 13.4741C6.62508 13.9855 7.95441 14.1261 9.25841 13.8815C11.9704 13.3728 14.1597 11.1195 14.5837 8.40147C14.9184 6.25013 14.2377 4.14213 12.7144 2.6188Z" fill="#1551E5"/>
    </symbol>
    <symbol id="icon-promo" width="16" height="16" viewBox="0 0 16 16" fill="none" xmlns="http://www.w3.org/2000/svg">
        <path fill-rule="evenodd" clip-rule="evenodd" d="M13.1598 2.84044C12.9284 2.60844 12.5531 2.60844 12.3218 2.84044L2.84044 12.3218C2.72444 12.4378 2.66644 12.5891 2.66644 12.7411C2.66644 12.8924 2.72444 13.0444 2.84044 13.1598C3.07178 13.3911 3.44644 13.3911 3.67844 13.1598L13.1598 3.67844C13.3911 3.44644 13.3911 3.07178 13.1598 2.84044ZM10.6666 12.6666C10.1153 12.6666 9.66664 12.218 9.66664 11.6666C9.66664 11.1153 10.1153 10.6666 10.6666 10.6666C11.218 10.6666 11.6666 11.1153 11.6666 11.6666C11.6666 12.218 11.218 12.6666 10.6666 12.6666ZM10.6666 9.33331C9.37998 9.33331 8.33331 10.38 8.33331 11.6666C8.33331 12.9533 9.37998 14 10.6666 14C11.9533 14 13 12.9533 13 11.6666C13 10.38 11.9533 9.33331 10.6666 9.33331ZM5.33331 3.99998C5.88464 3.99998 6.33331 4.44864 6.33331 4.99998C6.33331 5.55131 5.88464 5.99998 5.33331 5.99998C4.78198 5.99998 4.33331 5.55131 4.33331 4.99998C4.33331 4.44864 4.78198 3.99998 5.33331 3.99998ZM5.33331 7.33331C6.61998 7.33331 7.66664 6.28664 7.66664 4.99998C7.66664 3.71331 6.61998 2.66664 5.33331 2.66664C4.04664 2.66664 2.99998 3.71331 2.99998 4.99998C2.99998 6.28664 4.04664 7.33331 5.33331 7.33331Z" fill="#1551E5"/>
    </symbol>
    <symbol id="icon-carouse-start" width="38" height="64" viewBox="0 0 38 64" fill="none" xmlns="http://www.w3.org/2000/svg">
       <rect width="38" height="64" rx="8" fill="#F2F6FF"/>
       <path fill-rule="evenodd" clip-rule="evenodd" d="M21.4381 41.3333C21.0488 41.3333 20.6621 41.164 20.3981 40.836L13.9608 32.836C13.5634 32.3413 13.5688 31.6347 13.9754 31.1467L20.6421 23.1467C21.1128 22.5813 21.9541 22.5053 22.5208 22.976C23.0861 23.4467 23.1621 24.288 22.6901 24.8533L16.7234 32.0147L22.4768 39.164C22.9381 39.7373 22.8474 40.5773 22.2728 41.0387C22.0274 41.2373 21.7314 41.3333 21.4381 41.3333Z" fill="#071435"/>
    </symbol>
    <symbol id="icon-carouse-end" width="38" height="64" viewBox="0 0 38 64" fill="none" xmlns="http://www.w3.org/2000/svg">
       <rect width="38" height="64" rx="8" fill="#F2F6FF"/>
       <path fill-rule="evenodd" clip-rule="evenodd" d="M16.3327 41.3333C16.0313 41.3333 15.7287 41.232 15.4793 41.024C14.914 40.5533 14.838 39.712 15.3087 39.1467L21.2767 31.9853L15.5233 24.836C15.062 24.2627 15.1527 23.4227 15.726 22.9613C16.3007 22.5 17.1393 22.5907 17.602 23.164L24.0393 31.164C24.4367 31.6587 24.4313 32.3653 24.0247 32.8533L17.358 40.8533C17.094 41.1693 16.7153 41.3333 16.3327 41.3333Z" fill="#071435"/>
    </symbol>
    <symbol id="icon-content-top-line" width="1" height="312" viewBox="0 0 1 312" fill="none" xmlns="http://www.w3.org/2000/svg">
       <line x1="0.5" y1="2.18557e-08" x2="0.499986" y2="312" stroke="#E2E4F0"/>
    </symbol>
    <symbol id="icon-price-promo" width="53" height="22" viewBox="0 0 53 22" fill="none" xmlns="http://www.w3.org/2000/svg">
       <rect width="53" height="22" rx="4" fill="#FF3D71"/>
       <path d="M8.8 12.708V10.372H13.728V12.708H8.8ZM16.8949 16.5V7.716L14.9429 8.196L14.4309 6.18L17.6469 5.22H19.3269V16.5H16.8949ZM25.6769 16.692C24.0555 16.692 22.6582 16.132 21.4849 15.012L22.9729 13.236C23.8689 14.0467 24.7595 14.452 25.6449 14.452C26.2315 14.452 26.6902 14.3187 27.0209 14.052C27.3515 13.7853 27.5169 13.4013 27.5169 12.9V12.868C27.5169 12.3987 27.3355 12.0307 26.9729 11.764C26.6102 11.4867 26.1302 11.348 25.5329 11.348C24.8929 11.348 24.2689 11.4867 23.6609 11.764L22.2369 10.82L22.5569 5.3H29.4369V7.46H24.6689L24.5409 9.396C25.0529 9.268 25.5435 9.204 26.0129 9.204C27.1755 9.204 28.1195 9.50267 28.8449 10.1C29.5702 10.6973 29.9329 11.5933 29.9329 12.788V12.82C29.9329 14.004 29.5435 14.948 28.7649 15.652C27.9969 16.3453 26.9675 16.692 25.6769 16.692ZM34.299 10.9C33.5097 10.9 32.859 10.628 32.347 10.084C31.8457 9.54 31.595 8.868 31.595 8.068V8.036C31.595 7.236 31.851 6.55867 32.363 6.004C32.875 5.44933 33.531 5.172 34.331 5.172C35.1203 5.172 35.7657 5.444 36.267 5.988C36.779 6.532 37.035 7.204 37.035 8.004V8.036C37.035 8.836 36.779 9.51333 36.267 10.068C35.755 10.6227 35.099 10.9 34.299 10.9ZM34.299 6.628C33.9683 6.628 33.7123 6.76133 33.531 7.028C33.3603 7.284 33.275 7.60933 33.275 8.004V8.036C33.275 8.42 33.371 8.75067 33.563 9.028C33.7657 9.30533 34.0217 9.444 34.331 9.444C34.6617 9.444 34.9123 9.31067 35.083 9.044C35.2643 8.77733 35.355 8.452 35.355 8.068V8.036C35.355 7.652 35.2537 7.32133 35.051 7.044C34.859 6.76667 34.6083 6.628 34.299 6.628ZM37.195 10.468L40.891 5.3H42.795L38.315 11.332L34.619 16.5H32.715L37.195 10.468ZM41.179 16.628C40.3897 16.628 39.739 16.356 39.227 15.812C38.7257 15.268 38.475 14.596 38.475 13.796V13.764C38.475 12.964 38.731 12.2867 39.243 11.732C39.755 11.1773 40.411 10.9 41.211 10.9C42.0003 10.9 42.6457 11.172 43.147 11.716C43.659 12.26 43.915 12.932 43.915 13.732V13.764C43.915 14.564 43.659 15.2413 43.147 15.796C42.635 16.3507 41.979 16.628 41.179 16.628ZM41.211 15.172C41.5417 15.172 41.7923 15.0387 41.963 14.772C42.1443 14.5053 42.235 14.18 42.235 13.796V13.764C42.235 13.38 42.1337 13.0493 41.931 12.772C41.739 12.4947 41.4883 12.356 41.179 12.356C40.8483 12.356 40.5923 12.4893 40.411 12.756C40.2403 13.012 40.155 13.3373 40.155 13.732V13.764C40.155 14.148 40.251 14.4787 40.443 14.756C40.6457 15.0333 40.9017 15.172 41.211 15.172Z" fill="white"/>
    </symbol>
    <symbol id="icon-toggle"  width="40" height="24" viewBox="0 0 40 24" fill="none" xmlns="http://www.w3.org/2000/svg">
       <rect width="40" height="24" rx="12" fill="#1551E5"/>
       <path fill-rule="evenodd" clip-rule="evenodd" d="M28 22C33.5228 22 38 17.5228 38 12C38 6.47715 33.5228 2 28 2C22.4772 2 18 6.47715 18 12C18 17.5228 22.4772 22 28 22Z" fill="white"/>
    </symbol>
    <symbol id="icon-line-top-block" width="372" height="1" viewBox="0 0 372 1" fill="none" xmlns="http://www.w3.org/2000/svg">
       <line y1="0.5" x2="372" y2="0.5" stroke="#E2E4F0"/>
    </symbol>
    <symbol id="icon-buy-cart" width="24" height="24" viewBox="0 0 24 24" fill="none" xmlns="http://www.w3.org/2000/svg">
        <path fill-rule="evenodd" clip-rule="evenodd" d="M16.3818 14H8.76379L7.12679 8H19.3818L16.3818 14ZM21.0828 6.948C20.7158 6.354 20.0798 6 19.3818 6H6.58179L5.96479 3.737C5.84579 3.302 5.45079 3 4.99979 3H2.99979C2.44679 3 1.99979 3.448 1.99979 4C1.99979 4.552 2.44679 5 2.99979 5H4.23579L7.03479 15.263C7.15379 15.698 7.54879 16 7.99979 16H16.9998C17.3788 16 17.7248 15.786 17.8948 15.447L21.1708 8.894C21.4838 8.269 21.4498 7.542 21.0828 6.948ZM7.49999 18C6.67199 18 5.99999 18.671 5.99999 19.5C5.99999 20.329 6.67199 21 7.49999 21C8.32799 21 8.99999 20.329 8.99999 19.5C8.99999 18.671 8.32799 18 7.49999 18ZM16 19.5C16 18.671 16.672 18 17.5 18C18.328 18 19 18.671 19 19.5C19 20.329 18.328 21 17.5 21C16.672 21 16 20.329 16 19.5Z" fill="white"/> 
    </symbol>
    <symbol id="icon-buy-like" width="24" height="24" viewBox="0 0 24 24" fill="none" xmlns="http://www.w3.org/2000/svg">
        <path fill-rule="evenodd" clip-rule="evenodd" d="M7.2197 6C6.3557 6 5.5457 6.334 4.9397 6.941C3.6817 8.201 3.6817 10.252 4.9407 11.514L11.9997 18.585L19.0597 11.514C20.3187 10.252 20.3187 8.201 19.0597 6.941C17.8477 5.726 15.7117 5.728 14.4997 6.941L12.7077 8.736C12.3317 9.113 11.6677 9.113 11.2917 8.736L9.4997 6.94C8.8937 6.334 8.0847 6 7.2197 6ZM11.9997 21C11.7347 21 11.4797 20.895 11.2927 20.706L3.5247 12.926C1.4887 10.886 1.4887 7.567 3.5247 5.527C4.5087 4.543 5.8207 4 7.2197 4C8.6187 4 9.9317 4.543 10.9147 5.527L11.9997 6.614L13.0847 5.528C14.0687 4.543 15.3807 4 16.7807 4C18.1787 4 19.4917 4.543 20.4747 5.527C22.5117 7.567 22.5117 10.886 20.4757 12.926L12.7077 20.707C12.5197 20.895 12.2657 21 11.9997 21Z" fill="#1551E5"/>
    </symbol>

</svg>
